HIERARCHY
ROOT Hips
{
  OFFSET -69.4423 88.0299 51.6846
  CHANNELS 6 Xposition Yposition Zposition Zrotation Xrotation Yrotation
  JOINT Spine
  {
    OFFSET 12.0259 -0.162853 1.93176e-005
    CHANNELS 3 Zrotation Xrotation Yrotation
    JOINT Spine1
    {
      OFFSET 15.3169 -0.0121909 0
      CHANNELS 3 Zrotation Xrotation Yrotation
      JOINT Spine2
      {
        OFFSET 15.3176 -0.0121922 0
        CHANNELS 3 Zrotation Xrotation Yrotation
        JOINT Neck
        {
          OFFSET 19.9142 1.56236 0
          CHANNELS 3 Zrotation Xrotation Yrotation
          JOINT Head
          {
            OFFSET 6.92646 0 0
            CHANNELS 3 Zrotation Xrotation Yrotation
            End Site
            {
              OFFSET 20.7666 0 0
            }
          }
          JOINT LeftShoulder
          {
            OFFSET -4.94072 -1.14703 8.14416
            CHANNELS 3 Zrotation Xrotation Yrotation
            JOINT LeftArm
            {
              OFFSET 14.108 0 -2.74767e-005
              CHANNELS 3 Zrotation Xrotation Yrotation
              JOINT LeftForeArm
              {
                OFFSET 28.5802 -0.0783412 -0.0284884
                CHANNELS 3 Zrotation Xrotation Yrotation
                JOINT LeftHand
                {
                  OFFSET 27.092 0 0
                  CHANNELS 3 Zrotation Xrotation Yrotation
                  End Site
                  {
                    OFFSET 9.55928 -0.186424 0.145352
                  }
                }
              }
            }
          }
          JOINT RightShoulder
          {
            OFFSET -7.15748 -1.33027 -6.24935
            CHANNELS 3 Zrotation Xrotation Yrotation
            JOINT RightArm
            {
              OFFSET 14.108 0 1.82997e-005
              CHANNELS 3 Zrotation Xrotation Yrotation
              JOINT RightForeArm
              {
                OFFSET 28.5802 -0.0707221 2.30684e-005
                CHANNELS 3 Zrotation Xrotation Yrotation
                JOINT RightHand
                {
                  OFFSET 27.092 0 -1.30073e-005
                  CHANNELS 3 Zrotation Xrotation Yrotation
                  End Site
                  {
                    OFFSET 9.55929 -0.186417 -0.145354
                  }
                }
              }
            }
          }
        }
      }
    }
  }
  JOINT LeftUpLeg
  {
    OFFSET 0.00499725 -0.534999 8.837
    CHANNELS 3 Zrotation Xrotation Yrotation
    JOINT LeftLeg
    {
      OFFSET 39.9035 -0.00124594 0.000252775
      CHANNELS 3 Zrotation Xrotation Yrotation
      JOINT LeftFoot
      {
        OFFSET 39.6689 0 0
        CHANNELS 3 Zrotation Xrotation Yrotation
        JOINT LeftToe
        {
          OFFSET 10.1624 13.6296 0
          CHANNELS 3 Zrotation Xrotation Yrotation
          End Site
          {
            OFFSET 8.38147 0 0
          }
        }
      }
    }
  }
  JOINT RightUpLeg
  {
    OFFSET 0.00499725 -0.535 -8.837
    CHANNELS 3 Zrotation Xrotation Yrotation
    JOINT RightLeg
    {
      OFFSET 39.9036 -0.000268477 0.000106433
      CHANNELS 3 Zrotation Xrotation Yrotation
      JOINT RightFoot
      {
        OFFSET 39.6689 1.17892e-005 0
        CHANNELS 3 Zrotation Xrotation Yrotation
        JOINT RightToe
        {
          OFFSET 10.1624 13.6296 0
          CHANNELS 3 Zrotation Xrotation Yrotation
          End Site
          {
            OFFSET 8.38147 0 0
          }
        }
      }
    }
  }
}
MOTION
Frames:	8
Frame Time:	0.0333333
91.85 88.5647 -47.9218 95.1011 76.2159 -2.91123 -0.816469 -0.929942 0.181844 -1.63029 -1.86189 0.350642 -1.6303 -1.86189 0.350635 -13.2324 -7.6491 -17.7641 38.5456 -9.73102 21.4655 -171.131 -10.4549 -99.5687 -12.37 5.29189 86.181 -22.7315 2.44768 -14.7156 7.94655 -82.7503 10.0194 -171.082 -12.3759 68.7558 -18.0062 -6.30689 -86.3466 -21.6302 -2.46281 13.5888 3.00015 82.5166 -2.85707 -4.83447 -0.436531 177.78 -20.456 1.028 -1.207 3.85397 -1.12919 0.359425 90 7.55382e-015 6.36111e-015 -8.59667 2.15724 -178.221 -33.11 -0.558791 0.18715 9.00506 5.10947 -0.909724 90 5.56597e-015 3.18055e-015 
91.7623 88.5717 -47.9304 95.8055 76.2909 -3.59956 -0.715273 -0.975537 0.15469 -1.42821 -1.95243 0.297435 -1.42821 -1.95245 0.297417 -13.735 -7.59108 -17.3328 38.4015 -10.0285 20.9176 -170.501 -10.3999 -99.0268 -12.7026 4.43086 85.6621 -22.5967 2.42385 -14.6552 9.12204 -82.9139 11.0638 -170.464 -12.3909 69.2652 -18.0971 -5.24399 -86.0927 -21.5435 -2.44285 13.5317 2.79582 82.047 -2.64707 -4.98781 -0.209301 177.899 -20.4446 1.02052 -1.20425 3.8698 -0.733967 0.381387 90 -1.35174e-014 -1.43125e-014 -8.70266 2.09903 -178.161 -33.0316 -0.573053 0.184391 8.97064 5.16678 -0.904481 90 -2.06736e-014 -2.06736e-014 
91.6281 88.5671 -48.035 96.4246 75.9284 -4.31752 -0.817367 -0.850438 0.186226 -1.63221 -1.70303 0.360544 -1.63222 -1.70305 0.360528 -13.3254 -7.66292 -17.4285 38.7243 -10.1007 20.8856 -170.959 -10.3759 -99.2168 -13.2046 4.97214 85.7998 -22.742 2.4494 -14.7214 9.00693 -82.8768 11.0599 -170.917 -12.3533 69.1139 -18.248 -5.58272 -86.0665 -21.8277 -2.50386 13.6935 3.01323 82.5776 -2.87825 -5.26216 0.134282 178.132 -20.5911 1.02027 -1.203 3.86484 -0.69449 0.387894 90 3.97569e-015 3.18055e-015 -8.99049 2.08452 -178.005 -32.9794 -0.578359 0.183867 8.84717 4.95411 -0.892787 90 -1.19271e-014 -0 
91.5715 88.5688 -48.0008 96.3099 75.985 -4.00215 -0.828323 -0.865547 0.148442 -1.64347 -1.73254 0.284654 -1.64348 -1.73254 0.284636 -12.8073 -7.65362 -17.7078 38.4619 -9.62849 21.4454 -171.519 -10.3022 -99.596 -13.1459 5.15331 85.7533 -22.7532 2.44955 -14.7203 9.14035 -82.8826 11.1609 -171.478 -12.2818 68.7522 -18.745 -5.66665 -85.9805 -22.0986 -2.56261 13.8461 3.20323 82.9058 -3.08225 -5.08885 0.0128854 177.952 -20.3989 1.0203 -1.2028 3.85109 -0.747031 0.391042 90 -1.11319e-014 7.95139e-015 -8.94761 1.83584 -178.257 -33.1002 -0.579068 0.184591 8.99906 4.72626 -0.919413 90 -1.11319e-014 3.18055e-015 
91.4953 88.5557 -48.0399 96.783 76.0976 -4.46731 -0.813881 -0.941457 0.140734 -1.62553 -1.88441 0.278128 -1.62553 -1.88441 0.278113 -13.2119 -7.36884 -17.7292 39.164 -9.13007 21.3041 -171.05 -10.1441 -99.5747 -12.5889 5.10501 85.6219 -22.5808 2.41503 -14.6249 9.65954 -82.8979 11.5089 -171.011 -12.1286 68.765 -19.2307 -5.45925 -85.8185 -22.2214 -2.5852 13.906 3.25894 82.9421 -3.13649 -5.26534 0.061228 178.036 -20.4684 1.02041 -1.20544 3.82364 -0.570734 0.388023 90 5.56597e-015 -1.59028e-015 -9.03671 1.78239 -178.186 -33.0424 -0.576534 0.186048 8.98863 4.83649 -0.918707 90 7.95139e-016 3.18055e-015 
91.3551 88.5706 -48.1092 97.1884 75.9777 -5.02411 -0.758847 -0.868012 0.144261 -1.51511 -1.73753 0.305573 -1.51512 -1.73754 0.305557 -13.3669 -7.51977 -17.3935 39.333 -9.68851 20.9533 -170.857 -10.239 -99.1839 -12.674 4.9362 85.2381 -22.4998 2.40539 -14.574 8.07528 -82.6073 10.1384 -170.818 -12.244 69.1571 -19.1582 -5.19297 -85.724 -22.5138 -2.64978 14.0614 3.34682 83.1661 -3.2178 -5.44397 -0.32667 178.22 -20.5822 1.02041 -1.21501 3.81654 -1.01938 0.369068 90 -3.97569e-016 -7.95139e-015 -9.12965 1.67577 -177.969 -32.9124 -0.572111 0.187721 8.93565 4.61976 -0.916079 90 -7.15625e-015 3.18055e-015 
91.2697 88.5602 -48.1319 97.7662 75.6881 -5.36788 -0.792316 -0.814298 0.14682 -1.58278 -1.63007 0.282585 -1.58278 -1.63007 0.282571 -12.9941 -7.41242 -17.6643 39.3567 -9.20584 21.208 -171.25 -10.1063 -99.545 -12.2246 5.17148 85.3804 -22.5022 2.40489 -14.5664 8.42655 -83.0313 10.5247 -171.211 -12.0902 68.7993 -19.4987 -5.38744 -85.4501 -22.6253 -2.66346 14.1124 3.34234 83.496 -3.20808 -5.48256 -0.30332 178.043 -20.3794 1.02012 -1.22221 3.6975 -1.25566 0.348762 90 -1.39149e-014 -6.36111e-015 -9.36206 1.67716 -178.194 -33.0294 -0.567151 0.189096 8.99214 4.26918 -0.931901 90 -5.56597e-015 -0 
91.1 88.5748 -48.1687 97.996 75.808 -5.82495 -0.748736 -0.812035 0.18765 -1.49501 -1.62593 0.364912 -1.49502 -1.62594 0.364894 -12.9911 -7.44115 -17.6688 39.5361 -9.24665 21.2224 -171.27 -10.1455 -99.5519 -12.2565 5.52701 85.3503 -22.4416 2.3874 -14.5207 8.62003 -82.594 10.5513 -171.218 -12.1095 68.7981 -19.1887 -5.1872 -85.2777 -22.5052 -2.65536 14.0669 3.39395 82.7977 -3.27344 -5.6442 -0.579307 178.362 -20.5848 1.01935 -1.22452 3.76485 -1.40152 0.349049 90 5.1684e-015 9.54166e-015 -9.31264 1.72176 -177.803 -32.8027 -0.563009 0.189657 8.833 4.47962 -0.905788 90 -7.95139e-016 -1.27222e-014 
